<?xml version="1.0" standalone="no"?>
<svg xmlns:xlink="http://www.w3.org/1999/xlink" id="wave" style="transform:rotate(180deg); transition: 0.3s" viewBox="0 0 1440 100" version="1.1" xmlns="http://www.w3.org/2000/svg"><defs><linearGradient id="sw-gradient-0" x1="0" x2="0" y1="1" y2="0"><stop stop-color="rgba(255, 249, 234, 1)" offset="0%"/><stop stop-color="rgba(255, 249, 234, 1)" offset="100%"/></linearGradient></defs><path style="transform:translate(0, 0px); opacity:1" fill="url(#sw-gradient-0)" d="M0,80L20,73.3C40,67,80,53,120,46.7C160,40,200,40,240,48.3C280,57,320,73,360,80C400,87,440,83,480,70C520,57,560,33,600,26.7C640,20,680,30,720,35C760,40,800,40,840,48.3C880,57,920,73,960,71.7C1000,70,1040,50,1080,41.7C1120,33,1160,37,1200,46.7C1240,57,1280,73,1320,75C1360,77,1400,63,1440,63.3C1480,63,1520,77,1560,83.3C1600,90,1640,90,1680,90C1720,90,1760,90,1800,76.7C1840,63,1880,37,1920,28.3C1960,20,2000,30,2040,31.7C2080,33,2120,27,2160,30C2200,33,2240,47,2280,50C2320,53,2360,47,2400,41.7C2440,37,2480,33,2520,35C2560,37,2600,43,2640,48.3C2680,53,2720,57,2760,61.7C2800,67,2840,73,2860,76.7L2880,80L2880,100L2860,100C2840,100,2800,100,2760,100C2720,100,2680,100,2640,100C2600,100,2560,100,2520,100C2480,100,2440,100,2400,100C2360,100,2320,100,2280,100C2240,100,2200,100,2160,100C2120,100,2080,100,2040,100C2000,100,1960,100,1920,100C1880,100,1840,100,1800,100C1760,100,1720,100,1680,100C1640,100,1600,100,1560,100C1520,100,1480,100,1440,100C1400,100,1360,100,1320,100C1280,100,1240,100,1200,100C1160,100,1120,100,1080,100C1040,100,1000,100,960,100C920,100,880,100,840,100C800,100,760,100,720,100C680,100,640,100,600,100C560,100,520,100,480,100C440,100,400,100,360,100C320,100,280,100,240,100C200,100,160,100,120,100C80,100,40,100,20,100L0,100Z"/></svg>